<?xml version="1.0" standalone="no"?><!DOCTYPE svg PUBLIC "-//W3C//DTD SVG 1.1//EN" "http://www.w3.org/Graphics/SVG/1.1/DTD/svg11.dtd"><svg class="icon" width="64px" height="64.00px" viewBox="0 0 1024 1024" version="1.1" xmlns="http://www.w3.org/2000/svg"><path d="M682.666667 512h341.333333v341.333333c0 94.256257-76.410409 170.666667-170.666667 170.666667H341.333333V853.333333c0-188.513692 152.819641-341.333333 341.333334-341.333333z" fill="#E1E5EA" /><path d="M126.996009 384.136533c-32.523182 28.737913-51.14468 70.012175-51.14468 113.366216V853.662897c0 52.264018 42.450097 94.631724 94.815338 94.631724h682.666666c52.365241 0 94.815338-42.367706 94.815338-94.631724V497.502749c0-43.354041-18.620322-84.628303-51.14468-113.366216L574.848883 99.481011c-35.878841-31.702805-89.817747-31.702805-125.697766 0L126.996009 384.136533z m-50.2784-56.684873L398.87154 42.799669c64.582621-57.065048 161.674299-57.065048 226.25692 0L947.282391 327.452837C996.069517 370.558529 1024 432.471687 1024 497.502749V853.662897C1024 947.737894 947.589591 1024 853.333333 1024H170.666667C76.410409 1024 0 947.737894 0 853.662897V497.502749c0-65.031062 27.930483-126.943044 76.717609-170.049912z m245.652892 393.728H701.628322c20.946097 0 37.925664 16.946611 37.925664 37.852689 0 20.904901-16.979568 37.85269-37.925664 37.85269H322.371678c-20.946097 0-37.925664-16.947789-37.925664-37.85269 0-20.906078 16.979568-37.85269 37.925664-37.852689z" fill="#333333" /></svg>