<?xml version="1.0" standalone="no"?><!DOCTYPE svg PUBLIC "-//W3C//DTD SVG 1.1//EN" "http://www.w3.org/Graphics/SVG/1.1/DTD/svg11.dtd"><svg class="icon" width="64px" height="64.00px" viewBox="0 0 1024 1024" version="1.1" xmlns="http://www.w3.org/2000/svg"><path d="M796.444837 417.184662h151.703834v530.964009H417.184662v-151.705011h208.593508c94.256257 0 170.666667-76.409232 170.666667-170.666667V417.185839z" fill="#E1E5EA" /><path d="M834.370501 436.148671v-37.926841c0-10.473048 8.489784-18.961655 18.962832-18.961655 94.256257 0 170.666667 76.409232 170.666667 170.666666V853.333333c0 94.256257-76.410409 170.666667-170.666667 170.666667H549.925664c-94.256257 0-170.666667-76.410409-170.666666-170.666667 0-10.473048 8.489784-18.962832 18.962832-18.962832h37.926841c10.471871 0 18.961655 8.489784 18.961655 18.962832 0 52.365241 42.451274 94.815338 94.815338 94.815338H853.333333c52.365241 0 94.815338-42.450097 94.815338-94.815338V549.925664c0-52.365241-42.450097-94.814161-94.815338-94.814161-10.473048 0-18.962832-8.490961-18.962832-18.962832zM720.592331 171.090391v-0.235402c-0.129471-52.365241-42.685499-94.709407-95.049563-94.579936l-455.111504 1.131108c-52.272257 0.129471-94.579936 42.541903-94.579935 94.814161v453.556671c0 52.365241 42.450097 94.814161 94.815338 94.814161h455.111503c52.365241 0 94.814161-42.450097 94.814161-94.814161V171.090391z m75.852506 0v454.686602c0 94.256257-76.410409 170.666667-170.666667 170.666667H170.666667c-94.256257 0-170.666667-76.410409-170.666667-170.666667V172.220322c0-94.090299 76.152644-170.431264 170.242943-170.666667l455.110326-1.129931c94.256257-0.234225 170.856166 75.985508 171.090391 170.242943v0.423724z" fill="#333333" /></svg>