<?xml version="1.0" standalone="no"?><!DOCTYPE svg PUBLIC "-//W3C//DTD SVG 1.1//EN" "http://www.w3.org/Graphics/SVG/1.1/DTD/svg11.dtd"><svg class="icon" width="64px" height="56.89px" viewBox="0 0 1152 1024" version="1.1" xmlns="http://www.w3.org/2000/svg"><path d="M42.666225 938.666225h811.05304c23.565247 0 42.66755 19.102303 42.66755 42.66755 0 23.563922-19.102303 42.666225-42.66755 42.666225H42.666225C19.102303 1024 0 1004.897697 0 981.333775c0-23.565247 19.102303-42.66755 42.666225-42.66755z m512.221226-469.33245h106.74902c23.565247 0 42.66755 19.102303 42.66755 42.666225 0 23.563922-19.102303 42.666225-42.66755 42.666225h-106.74902c-23.563922 0-42.666225-19.102303-42.666225-42.666225 0-23.563922 19.102303-42.666225 42.666225-42.666225z m-512.221226 0h298.833139c23.563922 0 42.666225 19.102303 42.666225 42.666225 0 23.563922-19.102303 42.666225-42.666225 42.666225H42.666225C19.102303 554.666225 0 535.563922 0 512c0-23.563922 19.102303-42.666225 42.666225-42.666225zM42.666225 0h1067.164316C1133.394463 0 1152.496766 19.102303 1152.496766 42.666225c0 23.565247-19.102303 42.66755-42.666225 42.66755H42.666225C19.102303 85.333775 0 66.231472 0 42.666225 0 19.102303 19.102303 0 42.666225 0z" fill="#333333" /></svg>